M48
;DRILL file {KiCad (6.0.0-rc1-dev)} date 07/25/18 09:22:42
;FORMAT={-:-/ absolute / inch / decimal}
FMAT,2
INCH,TZ
T1C0.0394
%
G90
G05
M72
T1
X3.56Y-4.46
X3.56Y-4.56
X3.66Y-4.46
X3.66Y-4.56
X3.76Y-4.46
X3.76Y-4.56
X3.86Y-4.46
X3.86Y-4.56
X3.96Y-4.46
X3.96Y-4.56
X4.06Y-4.46
X4.06Y-4.56
X4.16Y-4.46
X4.16Y-4.56
X4.26Y-4.46
X4.26Y-4.56
X4.36Y-4.46
X4.36Y-4.56
X4.46Y-4.46
X4.46Y-4.56
X4.56Y-4.46
X4.56Y-4.56
X4.66Y-4.46
X4.66Y-4.56
X3.91Y-4.084
X4.01Y-4.084
X4.11Y-4.084
X4.21Y-4.084
X4.31Y-4.084
X4.41Y-4.084
X4.51Y-4.084
X4.61Y-4.084
T0
M30
